<?xml version="1.0" standalone="no"?>
<!DOCTYPE svg PUBLIC "-//W3C//DTD SVG 20010904//EN"
 "http://www.w3.org/TR/2001/REC-SVG-20010904/DTD/svg10.dtd">
<svg version="1.0" xmlns="http://www.w3.org/2000/svg"
 width="1024.000000pt" height="1024.000000pt" viewBox="0 0 1024.000000 1024.000000"
 preserveAspectRatio="xMidYMid meet">

<g transform="translate(0.000000,1024.000000) scale(0.100000,-0.100000)"
fill="#000000" stroke="none">
<path d="M1935 8380 c-158 -13 -318 -65 -445 -143 -83 -52 -79 -49 -180 -150
-135 -136 -230 -322 -261 -512 -6 -38 -11 -124 -11 -190 0 -442 275 -803 707
-930 77 -23 110 -27 235 -28 106 -2 168 3 230 16 80 17 213 58 252 79 15 7 24
0 49 -39 16 -26 48 -86 71 -133 22 -47 59 -125 83 -175 24 -49 46 -101 50
-115 4 -14 41 -110 83 -215 41 -104 83 -212 93 -240 34 -97 106 -261 138 -313
17 -29 31 -55 31 -57 0 -18 81 -111 137 -159 151 -129 313 -164 442 -98 53 28
94 112 93 192 l-1 60 32 2 c68 3 225 -4 287 -13 36 -5 102 -15 147 -21 l82
-12 3 -316 c3 -305 4 -317 27 -375 16 -39 42 -78 74 -110 l50 -50 138 0 138 0
-5 -100 c-10 -206 -35 -591 -40 -622 -4 -28 -2 -33 16 -33 11 0 20 7 20 15 0
8 6 15 13 15 11 0 15 47 20 228 11 369 19 522 30 522 6 0 8 -143 6 -382 -4
-340 -3 -370 8 -268 6 63 12 229 12 368 l1 252 525 0 525 0 0 -122 c0 -68 -3
-234 -7 -370 l-6 -248 -36 -1 c-20 -1 -47 -5 -61 -10 -19 -7 -14 -8 20 -4 245
25 280 27 375 17 162 -17 275 -63 275 -113 0 -20 -51 -66 -89 -81 -76 -30
-163 -41 -316 -41 -142 0 -169 3 -240 25 -49 16 -83 32 -90 44 -5 10 -14 22
-19 25 -10 8 2 68 16 87 6 7 7 12 1 12 -18 0 -38 -52 -38 -97 0 -38 5 -49 32
-73 49 -44 99 -53 278 -53 175 1 294 15 359 43 47 20 136 95 136 115 0 20 -60
60 -125 82 -84 29 -201 45 -303 42 l-87 -3 -3 364 -2 365 67 1 c78 0 135 24
177 75 62 73 61 65 64 422 2 180 4 327 6 327 9 0 131 -53 162 -71 149 -84 273
-198 314 -291 51 -116 60 -202 34 -348 -16 -97 -9 -203 18 -253 20 -38 95 -95
141 -108 140 -37 276 98 270 268 -5 138 -42 195 -287 439 -188 187 -280 260
-438 347 -44 25 -148 68 -195 82 l-23 6 -2 347 -3 347 -45 1 c-75 0 -156 6
-140 10 8 1 45 6 83 9 65 6 67 8 66 33 0 15 -3 21 -6 15 -2 -7 -10 -13 -16
-13 -9 0 -12 47 -12 167 0 161 -1 172 -33 277 -45 150 -117 252 -245 348 -76
57 -64 59 -155 -30 -109 -106 -155 -249 -154 -477 0 -193 29 -325 71 -325 10
0 21 -3 24 -7 4 -3 33 -5 66 -4 l58 2 8 -63 c4 -35 7 -92 5 -127 l-1 -63 155
3 156 4 -2 -220 c-2 -121 1 -373 6 -561 8 -313 7 -344 -9 -377 -12 -26 -26
-39 -49 -45 -49 -14 -1628 -3 -1643 12 -7 6 -19 43 -27 82 -12 57 -16 196 -21
687 -3 339 -8 622 -11 630 -3 8 -26 23 -52 32 -26 10 -62 29 -80 42 -86 64
-171 339 -172 554 0 77 25 229 45 273 7 17 22 52 33 77 50 118 193 282 291
333 116 61 302 60 403 -2 83 -51 203 -199 256 -314 58 -126 108 -329 118 -478
8 -120 -11 -399 -30 -444 -8 -19 -12 -37 -8 -40 3 -3 36 -6 74 -6 54 0 68 3
68 15 0 11 12 15 44 15 25 0 48 -4 51 -10 8 -13 55 -13 55 0 0 5 -9 33 -20 62
-52 141 -86 366 -76 515 14 240 72 439 172 588 70 106 203 175 337 175 153 0
273 -55 430 -196 93 -83 108 -102 145 -176 56 -114 78 -187 91 -298 7 -52 14
-106 16 -120 7 -44 -25 -232 -55 -322 -55 -167 -76 -188 -205 -207 l-60 -9 60
-1 c103 -1 155 34 199 134 31 72 34 79 51 145 35 131 48 297 33 405 -4 28 -12
86 -18 130 -15 118 -35 178 -97 293 -44 79 -74 120 -135 180 -55 53 -76 81
-72 92 14 30 15 110 2 110 -26 0 -92 -28 -96 -40 -3 -8 0 -10 7 -6 6 4 11 2
11 -4 0 -7 8 -9 19 -5 11 3 22 1 26 -4 4 -7 -1 -8 -11 -4 -11 4 -15 3 -10 -5
3 -6 -21 0 -54 13 -33 13 -84 29 -113 35 -96 19 -278 13 -293 -11 -3 -5 -12
-9 -20 -9 -47 0 -153 -77 -207 -150 -30 -42 -104 -187 -109 -215 -1 -11 -6
-22 -10 -25 -4 -3 -9 -16 -11 -28 -2 -12 -6 -25 -10 -28 -4 -4 -7 -16 -7 -26
0 -10 -4 -18 -9 -18 -23 0 -60 -154 -68 -288 -5 -82 -10 -113 -25 -131 l-18
-24 0 39 c-1 40 -46 255 -74 353 -9 30 -40 105 -69 165 -76 156 -145 220 -312
287 -36 14 -118 29 -195 35 -67 5 -76 8 -87 30 -6 13 -7 22 -2 18 5 -3 9 -1 9
4 0 12 -24 22 -53 22 -23 0 -93 38 -84 46 2 3 21 -5 41 -16 19 -12 41 -20 47
-18 11 4 -122 78 -138 78 -5 -1 4 -8 20 -16 24 -13 26 -18 16 -36 -9 -17 -13
-18 -20 -7 -8 11 -12 10 -26 -6 -12 -15 -14 -16 -10 -3 3 9 -1 22 -9 29 -11 9
-11 15 -3 25 8 10 5 15 -15 20 -14 3 -26 10 -26 15 0 12 7 11 31 -1 22 -12 25
0 9 30 -7 13 -7 21 0 25 15 9 12 25 -4 25 -7 0 -16 -10 -20 -22 -5 -22 -6 -22
-20 -3 -9 11 -16 26 -16 34 0 11 -4 9 -14 -5 -11 -15 -17 -16 -27 -7 -9 9 -17
8 -35 -4 -31 -20 -30 -46 1 -67 14 -9 34 -35 46 -58 12 -24 53 -73 90 -111 38
-37 69 -71 69 -76 0 -4 -26 -26 -59 -49 -64 -45 -168 -167 -206 -242 -14 -27
-36 -88 -50 -136 -22 -76 -25 -105 -25 -248 0 -143 8 -239 24 -301 3 -11 10
-40 16 -65 23 -95 90 -242 132 -287 12 -12 42 -30 67 -39 59 -22 73 -34 66
-53 -4 -9 -7 -158 -8 -331 -1 -254 -2 -284 -7 -155 l-6 160 -2 -159 -2 -158
-32 6 c-18 3 -69 10 -114 16 -44 5 -118 16 -165 25 -46 8 -123 15 -171 15
l-87 0 -33 48 c-18 26 -58 75 -89 108 -32 34 -65 77 -74 95 -10 19 -26 44 -38
56 l-20 22 24 33 c38 51 49 84 49 144 0 109 -40 138 -188 136 l-83 -1 -76 79
c-42 44 -94 103 -115 132 -22 29 -52 67 -68 83 -15 17 -39 49 -54 72 -14 23
-34 50 -44 60 -10 10 -36 43 -57 73 -22 30 -45 61 -52 68 -26 27 -101 138
-107 158 -5 16 6 34 43 77 102 116 141 187 202 368 l42 124 1 160 c0 144 -3
170 -27 260 -63 233 -189 417 -377 550 -30 22 -57 42 -60 45 -12 14 -181 84
-240 100 -59 16 -167 37 -230 44 -14 2 -65 0 -115 -4z m171 -151 c99 -14 242
-65 319 -114 75 -49 210 -182 259 -259 47 -71 102 -204 116 -276 6 -29 10
-104 10 -167 0 -210 -76 -401 -219 -555 -43 -46 -91 -90 -107 -98 -16 -8 -55
-32 -88 -52 -32 -21 -95 -49 -140 -63 -84 -26 -235 -46 -296 -39 -79 9 -176
27 -185 33 -5 4 -30 13 -55 20 -85 24 -231 122 -302 203 -230 263 -289 602
-155 900 51 114 192 276 301 346 79 51 191 94 305 117 85 16 141 18 237 4z
m4127 -864 c-3 -8 -10 -15 -15 -15 -7 0 -6 5 1 13 6 8 7 18 3 22 -4 5 -2 5 5
1 7 -4 10 -13 6 -21z m-1006 -1327 c-3 -8 -6 -5 -6 6 -1 11 2 17 5 13 3 -3 4
-12 1 -19z m-21 -84 c-4 -9 -9 -15 -11 -12 -3 3 -3 13 1 22 4 9 9 15 11 12 3
-3 3 -13 -1 -22z m964 -361 c0 -230 -3 -314 -11 -306 -7 7 -10 85 -7 247 1
130 0 236 -4 236 -5 0 -8 32 -8 70 0 56 3 70 15 70 13 0 15 -42 15 -317z m-98
275 c-7 -7 -12 -8 -12 -2 0 14 12 26 19 19 2 -3 -1 -11 -7 -17z m-192 -1517
c0 -6 -4 -13 -10 -16 -5 -3 -10 1 -10 9 0 9 5 16 10 16 6 0 10 -4 10 -9z"/>
<path d="M5080 8146 c-6 -6 -10 -79 -10 -183 0 -217 -2 -213 128 -213 125 1
184 28 233 106 62 101 -26 267 -155 294 -62 12 -182 10 -196 -4z m212 -93 c15
-7 34 -27 43 -43 19 -37 19 -109 0 -137 -21 -30 -93 -55 -146 -51 l-44 3 -3
127 -3 128 63 -7 c35 -3 75 -12 90 -20z"/>
<path d="M5614 8040 c-30 -12 -79 -64 -94 -99 -25 -61 28 -165 97 -192 85 -32
182 30 207 133 22 91 -117 196 -210 158z m111 -66 c21 -14 25 -24 25 -64 0
-63 -28 -100 -75 -100 -44 0 -75 38 -75 92 0 72 67 110 125 72z"/>
<path d="M5936 8020 c-76 -68 -79 -159 -7 -231 66 -67 138 -65 192 3 30 37 33
48 33 109 1 59 -2 71 -24 94 -60 64 -138 74 -194 25z m123 -39 c9 -6 14 -30
15 -71 1 -53 -2 -64 -22 -80 -44 -36 -102 8 -102 76 0 30 50 84 77 84 10 0 24
-4 32 -9z"/>
<path d="M4911 7876 c0 -10 -9 -25 -18 -32 -20 -15 -6 -19 15 -5 8 5 12 19 9
32 -3 17 -5 19 -6 5z"/>
<path d="M4818 7843 c7 -3 16 -2 19 1 4 3 -2 6 -13 5 -11 0 -14 -3 -6 -6z"/>
<path d="M4280 7740 c0 -5 7 -10 16 -10 8 0 12 5 9 10 -3 6 -10 10 -16 10 -5
0 -9 -4 -9 -10z"/>
<path d="M4115 7689 c-31 -28 -35 -36 -34 -78 1 -41 2 -43 8 -16 11 43 27 71
56 93 14 11 25 23 25 26 0 14 -22 4 -55 -25z"/>
<path d="M4066 7693 c-6 -14 -5 -15 5 -6 7 7 10 15 7 18 -3 3 -9 -2 -12 -12z"/>
<path d="M4515 7690 c-29 -32 -10 -72 38 -84 42 -11 51 -4 64 43 13 50 -66 81
-102 41z m75 -15 c6 -8 9 -23 5 -35 -5 -17 -13 -20 -38 -18 -38 4 -48 32 -20
53 23 18 38 18 53 0z"/>
<path d="M6166 7563 c-1 -1 -101 -9 -222 -18 -120 -8 -316 -22 -434 -30 -280
-20 -582 -23 -588 -7 -2 7 -13 12 -23 12 -17 0 -20 -6 -17 -32 3 -32 4 -33 58
-38 102 -9 423 5 450 19 13 8 42 13 64 13 21 -1 45 3 52 9 20 16 324 35 627
38 109 1 117 2 117 20 0 17 -6 20 -40 18 -23 -1 -42 -2 -44 -4z"/>
<path d="M4630 6749 c-67 -45 -78 -57 -116 -128 -52 -99 -65 -152 -71 -296 -8
-196 16 -330 70 -387 32 -35 45 -38 95 -23 14 5 22 3 22 -4 0 -9 27 -11 103
-6 56 3 147 5 203 5 l101 -1 13 61 c35 166 -36 457 -150 615 -20 28 -49 67
-64 88 -29 40 -121 107 -146 107 -8 0 -35 -14 -60 -31z m-83 -791 c-3 -8 -6
-5 -6 6 -1 11 2 17 5 13 3 -3 4 -12 1 -19z"/>
<path d="M6200 6229 c0 -5 5 -7 10 -4 6 3 10 8 10 11 0 2 -4 4 -10 4 -5 0 -10
-5 -10 -11z"/>
<path d="M6201 6124 c0 -11 3 -14 6 -6 3 7 2 16 -1 19 -3 4 -6 -2 -5 -13z"/>
<path d="M4453 3603 c9 -2 23 -2 30 0 6 3 -1 5 -18 5 -16 0 -22 -2 -12 -5z"/>
<path d="M4136 3551 c-28 -30 -37 -79 -22 -115 19 -45 33 -53 142 -81 171 -44
555 -48 569 -6 3 10 21 25 40 34 31 15 35 21 35 55 0 28 -8 47 -31 72 l-30 35
25 -46 c14 -25 26 -53 26 -62 0 -23 -49 -57 -83 -57 -16 0 -35 -7 -41 -15 -16
-21 -274 -26 -371 -8 -38 8 -104 20 -145 27 -41 7 -83 17 -93 21 -43 18 -49
83 -11 132 26 35 19 46 -10 14z"/>
</g>
</svg>
